<?xml version="1.0" standalone="no"?><!DOCTYPE svg PUBLIC "-//W3C//DTD SVG 1.1//EN" "http://www.w3.org/Graphics/SVG/1.1/DTD/svg11.dtd"><svg t="1607526838413" class="icon" viewBox="0 0 1024 1024" version="1.1" xmlns="http://www.w3.org/2000/svg" p-id="1337" xmlns:xlink="http://www.w3.org/1999/xlink" width="200" height="200"><defs><style type="text/css"></style></defs><path d="M848.66 794.521h-564.219c-23.054 0-42.821-16.461-46.996-39.133l-111.207-603.945c-1.098-2.857-3.151-4.539-4.769-5.472-1.814-1.050-4.721-2.1-8.252-1.154-25.491 6.831-51.696-8.298-58.526-33.789s8.299-51.696 33.791-58.526c27.415-7.347 56.101-3.547 80.775 10.7 24.675 14.246 42.309 37.19 49.655 64.605 0.329 1.226 0.608 2.466 0.838 3.714l104.483 567.427h524.429c26.391 0 47.787 21.395 47.787 47.787s-21.397 47.787-47.79 47.787z" fill="" p-id="1338"></path><path d="M419.242 652.068c-24.941 0.001-45.947-19.354-47.634-44.604-1.759-26.333 18.163-49.105 44.496-50.864l408.89-27.307c0.953-0.068 2.063-0.107 3.183-0.107 0 0 0 0 0.001 0 5.921 0 10.923-5.003 10.923-10.923 0-1.146 0.041-2.29 0.124-3.433l12.113-168.238c-0.535-5.461-5.296-9.899-10.873-9.899-0.723 0-1.45-0.016-2.172-0.049l-600.038-27.307c-26.365-1.2-46.764-23.546-45.565-49.909 1.2-26.364 23.529-46.747 49.909-45.565l599.111 27.264c58.149 0.67 105.249 48.182 105.249 106.49 0 1.146-0.041 2.29-0.124 3.433l-12.181 169.179c-1.040 57.213-47.421 103.55-104.652 104.515l-407.531 27.217c-1.084 0.073-2.161 0.108-3.232 0.108zM850.265 897.127c0 41.473-33.62 75.093-75.093 75.093s-75.093-33.62-75.093-75.093 33.62-75.093 75.093-75.093 75.093 33.62 75.093 75.093M481.964 897.127c0 41.473-33.62 75.093-75.093 75.093s-75.093-33.62-75.093-75.093 33.62-75.093 75.093-75.093 75.093 33.62 75.093 75.093z" fill="" p-id="1339"></path></svg>